STARTFONT 2.1
FONT -FontForge-ug82 KH Test-Book-R-Normal--16-160-72-72-P-80-ISO10646-1
SIZE 16 72 72
FONTBOUNDINGBOX 33 24 -16 -9
COMMENT "Generated by fontforge, http://fontforge.sourceforge.net"
STARTPROPERTIES 39
FOUNDRY "FontForge"
FAMILY_NAME "ug82 KH Test"
WEIGHT_NAME "Book"
SLANT "R"
SETWIDTH_NAME "Normal"
ADD_STYLE_NAME ""
PIXEL_SIZE 16
POINT_SIZE 160
RESOLUTION_X 72
RESOLUTION_Y 72
SPACING "P"
AVERAGE_WIDTH 80
CHARSET_REGISTRY "ISO10646"
CHARSET_ENCODING "1"
FONTNAME_REGISTRY ""
CHARSET_COLLECTIONS "ISO10646-1"
FONT_NAME "ug82KHTest-Regular"
FACE_NAME "ug82 KH Test Regular"
FONT_VERSION "1.000"
FONT_ASCENT 13
FONT_DESCENT 3
UNDERLINE_POSITION -2
UNDERLINE_THICKNESS 1
X_HEIGHT 0
CAP_HEIGHT 0
RAW_ASCENT 800
RAW_DESCENT 200
NORM_SPACE 3
RELATIVE_WEIGHT 40
RELATIVE_SETWIDTH 50
SUPERSCRIPT_X 0
SUPERSCRIPT_Y 5
SUPERSCRIPT_SIZE 9
SUBSCRIPT_X 0
SUBSCRIPT_Y 1
SUBSCRIPT_SIZE 9
FIGURE_WIDTH 37
AVG_LOWERCASE_WIDTH 90
AVG_UPPERCASE_WIDTH 90
ENDPROPERTIES
CHARS 211
STARTCHAR space
ENCODING 32
SWIDTH 192 0
DWIDTH 3 0
BBX 1 1 0 0
BITMAP
00
ENDCHAR
STARTCHAR comma
ENCODING 44
SWIDTH 2327 0
DWIDTH 37 0
BBX 1 1 0 0
BITMAP
00
ENDCHAR
STARTCHAR hyphen
ENCODING 45
SWIDTH 2327 0
DWIDTH 37 0
BBX 1 1 0 0
BITMAP
00
ENDCHAR
STARTCHAR period
ENCODING 46
SWIDTH 256 0
DWIDTH 4 0
BBX 1 1 0 0
BITMAP
00
ENDCHAR
STARTCHAR zero
ENCODING 48
SWIDTH 2327 0
DWIDTH 37 0
BBX 1 1 0 0
BITMAP
00
ENDCHAR
STARTCHAR one
ENCODING 49
SWIDTH 2327 0
DWIDTH 37 0
BBX 1 1 0 0
BITMAP
00
ENDCHAR
STARTCHAR two
ENCODING 50
SWIDTH 2327 0
DWIDTH 37 0
BBX 1 1 0 0
BITMAP
00
ENDCHAR
STARTCHAR three
ENCODING 51
SWIDTH 2327 0
DWIDTH 37 0
BBX 1 1 0 0
BITMAP
00
ENDCHAR
STARTCHAR four
ENCODING 52
SWIDTH 2327 0
DWIDTH 37 0
BBX 1 1 0 0
BITMAP
00
ENDCHAR
STARTCHAR five
ENCODING 53
SWIDTH 2327 0
DWIDTH 37 0
BBX 1 1 0 0
BITMAP
00
ENDCHAR
STARTCHAR six
ENCODING 54
SWIDTH 2327 0
DWIDTH 37 0
BBX 1 1 0 0
BITMAP
00
ENDCHAR
STARTCHAR seven
ENCODING 55
SWIDTH 2327 0
DWIDTH 37 0
BBX 1 1 0 0
BITMAP
00
ENDCHAR
STARTCHAR eight
ENCODING 56
SWIDTH 2327 0
DWIDTH 37 0
BBX 1 1 0 0
BITMAP
00
ENDCHAR
STARTCHAR nine
ENCODING 57
SWIDTH 2327 0
DWIDTH 37 0
BBX 1 1 0 0
BITMAP
00
ENDCHAR
STARTCHAR A
ENCODING 65
SWIDTH 576 0
DWIDTH 9 0
BBX 1 1 0 0
BITMAP
00
ENDCHAR
STARTCHAR B
ENCODING 66
SWIDTH 576 0
DWIDTH 9 0
BBX 1 1 0 0
BITMAP
00
ENDCHAR
STARTCHAR C
ENCODING 67
SWIDTH 576 0
DWIDTH 9 0
BBX 1 1 0 0
BITMAP
00
ENDCHAR
STARTCHAR D
ENCODING 68
SWIDTH 576 0
DWIDTH 9 0
BBX 1 1 0 0
BITMAP
00
ENDCHAR
STARTCHAR E
ENCODING 69
SWIDTH 576 0
DWIDTH 9 0
BBX 1 1 0 0
BITMAP
00
ENDCHAR
STARTCHAR F
ENCODING 70
SWIDTH 576 0
DWIDTH 9 0
BBX 1 1 0 0
BITMAP
00
ENDCHAR
STARTCHAR G
ENCODING 71
SWIDTH 576 0
DWIDTH 9 0
BBX 1 1 0 0
BITMAP
00
ENDCHAR
STARTCHAR H
ENCODING 72
SWIDTH 576 0
DWIDTH 9 0
BBX 1 1 0 0
BITMAP
00
ENDCHAR
STARTCHAR I
ENCODING 73
SWIDTH 576 0
DWIDTH 9 0
BBX 1 1 0 0
BITMAP
00
ENDCHAR
STARTCHAR J
ENCODING 74
SWIDTH 576 0
DWIDTH 9 0
BBX 1 1 0 0
BITMAP
00
ENDCHAR
STARTCHAR K
ENCODING 75
SWIDTH 576 0
DWIDTH 9 0
BBX 1 1 0 0
BITMAP
00
ENDCHAR
STARTCHAR L
ENCODING 76
SWIDTH 576 0
DWIDTH 9 0
BBX 1 1 0 0
BITMAP
00
ENDCHAR
STARTCHAR M
ENCODING 77
SWIDTH 576 0
DWIDTH 9 0
BBX 1 1 0 0
BITMAP
00
ENDCHAR
STARTCHAR N
ENCODING 78
SWIDTH 576 0
DWIDTH 9 0
BBX 1 1 0 0
BITMAP
00
ENDCHAR
STARTCHAR O
ENCODING 79
SWIDTH 576 0
DWIDTH 9 0
BBX 1 1 0 0
BITMAP
00
ENDCHAR
STARTCHAR P
ENCODING 80
SWIDTH 576 0
DWIDTH 9 0
BBX 1 1 0 0
BITMAP
00
ENDCHAR
STARTCHAR Q
ENCODING 81
SWIDTH 576 0
DWIDTH 9 0
BBX 1 1 0 0
BITMAP
00
ENDCHAR
STARTCHAR R
ENCODING 82
SWIDTH 576 0
DWIDTH 9 0
BBX 1 1 0 0
BITMAP
00
ENDCHAR
STARTCHAR S
ENCODING 83
SWIDTH 576 0
DWIDTH 9 0
BBX 1 1 0 0
BITMAP
00
ENDCHAR
STARTCHAR T
ENCODING 84
SWIDTH 576 0
DWIDTH 9 0
BBX 1 1 0 0
BITMAP
00
ENDCHAR
STARTCHAR U
ENCODING 85
SWIDTH 576 0
DWIDTH 9 0
BBX 1 1 0 0
BITMAP
00
ENDCHAR
STARTCHAR V
ENCODING 86
SWIDTH 576 0
DWIDTH 9 0
BBX 1 1 0 0
BITMAP
00
ENDCHAR
STARTCHAR W
ENCODING 87
SWIDTH 576 0
DWIDTH 9 0
BBX 1 1 0 0
BITMAP
00
ENDCHAR
STARTCHAR X
ENCODING 88
SWIDTH 576 0
DWIDTH 9 0
BBX 1 1 0 0
BITMAP
00
ENDCHAR
STARTCHAR Y
ENCODING 89
SWIDTH 576 0
DWIDTH 9 0
BBX 1 1 0 0
BITMAP
00
ENDCHAR
STARTCHAR Z
ENCODING 90
SWIDTH 576 0
DWIDTH 9 0
BBX 1 1 0 0
BITMAP
00
ENDCHAR
STARTCHAR a
ENCODING 97
SWIDTH 576 0
DWIDTH 9 0
BBX 1 1 0 0
BITMAP
00
ENDCHAR
STARTCHAR b
ENCODING 98
SWIDTH 576 0
DWIDTH 9 0
BBX 1 1 0 0
BITMAP
00
ENDCHAR
STARTCHAR c
ENCODING 99
SWIDTH 576 0
DWIDTH 9 0
BBX 1 1 0 0
BITMAP
00
ENDCHAR
STARTCHAR d
ENCODING 100
SWIDTH 576 0
DWIDTH 9 0
BBX 1 1 0 0
BITMAP
00
ENDCHAR
STARTCHAR e
ENCODING 101
SWIDTH 576 0
DWIDTH 9 0
BBX 1 1 0 0
BITMAP
00
ENDCHAR
STARTCHAR f
ENCODING 102
SWIDTH 576 0
DWIDTH 9 0
BBX 1 1 0 0
BITMAP
00
ENDCHAR
STARTCHAR g
ENCODING 103
SWIDTH 576 0
DWIDTH 9 0
BBX 1 1 0 0
BITMAP
00
ENDCHAR
STARTCHAR h
ENCODING 104
SWIDTH 576 0
DWIDTH 9 0
BBX 1 1 0 0
BITMAP
00
ENDCHAR
STARTCHAR i
ENCODING 105
SWIDTH 576 0
DWIDTH 9 0
BBX 1 1 0 0
BITMAP
00
ENDCHAR
STARTCHAR j
ENCODING 106
SWIDTH 576 0
DWIDTH 9 0
BBX 1 1 0 0
BITMAP
00
ENDCHAR
STARTCHAR k
ENCODING 107
SWIDTH 576 0
DWIDTH 9 0
BBX 1 1 0 0
BITMAP
00
ENDCHAR
STARTCHAR l
ENCODING 108
SWIDTH 576 0
DWIDTH 9 0
BBX 1 1 0 0
BITMAP
00
ENDCHAR
STARTCHAR m
ENCODING 109
SWIDTH 576 0
DWIDTH 9 0
BBX 1 1 0 0
BITMAP
00
ENDCHAR
STARTCHAR n
ENCODING 110
SWIDTH 576 0
DWIDTH 9 0
BBX 1 1 0 0
BITMAP
00
ENDCHAR
STARTCHAR o
ENCODING 111
SWIDTH 576 0
DWIDTH 9 0
BBX 1 1 0 0
BITMAP
00
ENDCHAR
STARTCHAR p
ENCODING 112
SWIDTH 576 0
DWIDTH 9 0
BBX 1 1 0 0
BITMAP
00
ENDCHAR
STARTCHAR q
ENCODING 113
SWIDTH 576 0
DWIDTH 9 0
BBX 1 1 0 0
BITMAP
00
ENDCHAR
STARTCHAR r
ENCODING 114
SWIDTH 576 0
DWIDTH 9 0
BBX 1 1 0 0
BITMAP
00
ENDCHAR
STARTCHAR s
ENCODING 115
SWIDTH 576 0
DWIDTH 9 0
BBX 1 1 0 0
BITMAP
00
ENDCHAR
STARTCHAR t
ENCODING 116
SWIDTH 576 0
DWIDTH 9 0
BBX 1 1 0 0
BITMAP
00
ENDCHAR
STARTCHAR u
ENCODING 117
SWIDTH 576 0
DWIDTH 9 0
BBX 1 1 0 0
BITMAP
00
ENDCHAR
STARTCHAR v
ENCODING 118
SWIDTH 576 0
DWIDTH 9 0
BBX 1 1 0 0
BITMAP
00
ENDCHAR
STARTCHAR w
ENCODING 119
SWIDTH 576 0
DWIDTH 9 0
BBX 1 1 0 0
BITMAP
00
ENDCHAR
STARTCHAR x
ENCODING 120
SWIDTH 576 0
DWIDTH 9 0
BBX 1 1 0 0
BITMAP
00
ENDCHAR
STARTCHAR y
ENCODING 121
SWIDTH 576 0
DWIDTH 9 0
BBX 1 1 0 0
BITMAP
00
ENDCHAR
STARTCHAR z
ENCODING 122
SWIDTH 576 0
DWIDTH 9 0
BBX 1 1 0 0
BITMAP
00
ENDCHAR
STARTCHAR uni1780
ENCODING 6016
SWIDTH 640 0
DWIDTH 10 0
BBX 7 9 1 0
BITMAP
FE
00
7C
82
82
82
82
82
82
ENDCHAR
STARTCHAR uni1781
ENCODING 6017
SWIDTH 640 0
DWIDTH 10 0
BBX 7 9 1 0
BITMAP
7C
82
82
04
38
C0
82
82
7C
ENDCHAR
STARTCHAR uni1782
ENCODING 6018
SWIDTH 640 0
DWIDTH 10 0
BBX 7 9 1 0
BITMAP
FE
00
7C
82
82
B2
C2
82
82
ENDCHAR
STARTCHAR uni1783
ENCODING 6019
SWIDTH 896 0
DWIDTH 14 0
BBX 11 9 1 0
BITMAP
C660
4880
4CE0
8420
8420
8420
8420
8420
7BC0
ENDCHAR
STARTCHAR uni1784
ENCODING 6020
SWIDTH 640 0
DWIDTH 10 0
BBX 8 11 0 0
BITMAP
40
40
46
4A
3E
01
C1
41
49
55
63
ENDCHAR
STARTCHAR uni1785
ENCODING 6021
SWIDTH 640 0
DWIDTH 10 0
BBX 8 9 0 0
BITMAP
7F
80
C3
45
47
41
41
41
3E
ENDCHAR
STARTCHAR uni1786
ENCODING 6022
SWIDTH 640 0
DWIDTH 10 0
BBX 8 9 0 0
BITMAP
7F
80
C3
45
47
41
79
A5
C3
ENDCHAR
STARTCHAR uni1787
ENCODING 6023
SWIDTH 640 0
DWIDTH 10 0
BBX 8 11 0 0
BITMAP
01
01
7F
80
C0
41
41
41
49
55
63
ENDCHAR
STARTCHAR uni1788
ENCODING 6024
SWIDTH 1216 0
DWIDTH 19 0
BBX 16 9 1 0
BITMAP
7863
8484
84E7
8421
8421
8421
E421
A421
C3DE
ENDCHAR
STARTCHAR uni1789
ENCODING 6025
SWIDTH 896 0
DWIDTH 14 0
BBX 11 14 1 -5
BITMAP
6DC0
B620
8420
8420
8420
8420
E420
A420
C420
0000
00C0
E020
1C20
03C0
ENDCHAR
STARTCHAR uni178A
ENCODING 6026
SWIDTH 640 0
DWIDTH 10 0
BBX 7 11 1 0
BITMAP
02
02
62
82
7C
00
82
82
92
AA
C6
ENDCHAR
STARTCHAR uni178B
ENCODING 6027
SWIDTH 640 0
DWIDTH 10 0
BBX 7 11 1 0
BITMAP
02
02
C6
48
4E
82
82
82
82
82
7C
ENDCHAR
STARTCHAR uni178C
ENCODING 6028
SWIDTH 640 0
DWIDTH 10 0
BBX 7 9 1 0
BITMAP
6C
92
82
04
38
C0
86
8A
72
ENDCHAR
STARTCHAR uni178D
ENCODING 6029
SWIDTH 896 0
DWIDTH 14 0
BBX 11 9 1 0
BITMAP
6C60
B480
84E0
8420
8420
8420
E620
A520
C4C0
ENDCHAR
STARTCHAR uni178E
ENCODING 6030
SWIDTH 1152 0
DWIDTH 18 0
BBX 15 9 1 0
BITMAP
783C
8442
8442
8442
8442
8442
E542
A6C2
C442
ENDCHAR
STARTCHAR uni178F
ENCODING 6031
SWIDTH 640 0
DWIDTH 10 0
BBX 7 9 1 0
BITMAP
FE
00
7C
82
82
82
E2
A2
C2
ENDCHAR
STARTCHAR uni1790
ENCODING 6032
SWIDTH 640 0
DWIDTH 10 0
BBX 8 11 0 0
BITMAP
01
01
7F
80
C3
45
47
41
41
41
3E
ENDCHAR
STARTCHAR uni1791
ENCODING 6033
SWIDTH 640 0
DWIDTH 10 0
BBX 7 9 1 0
BITMAP
7C
82
82
80
64
1A
04
44
38
ENDCHAR
STARTCHAR uni1792
ENCODING 6034
SWIDTH 640 0
DWIDTH 10 0
BBX 8 9 0 0
BITMAP
7F
80
C3
45
47
41
49
55
63
ENDCHAR
STARTCHAR uni1793
ENCODING 6035
SWIDTH 640 0
DWIDTH 10 0
BBX 7 9 1 0
BITMAP
7C
82
82
80
7C
02
C2
A2
9C
ENDCHAR
STARTCHAR uni1794
ENCODING 6036
SWIDTH 640 0
DWIDTH 10 0
BBX 8 9 0 0
BITMAP
63
84
C7
41
41
41
41
41
3E
ENDCHAR
STARTCHAR uni1795
ENCODING 6037
SWIDTH 640 0
DWIDTH 10 0
BBX 8 11 0 0
BITMAP
01
01
7F
80
C3
45
47
41
49
55
63
ENDCHAR
STARTCHAR uni1796
ENCODING 6038
SWIDTH 640 0
DWIDTH 10 0
BBX 7 9 1 0
BITMAP
6C
92
82
82
82
82
E2
A2
C2
ENDCHAR
STARTCHAR uni1797
ENCODING 6039
SWIDTH 640 0
DWIDTH 10 0
BBX 7 9 1 0
BITMAP
FE
00
7C
82
82
42
22
22
C2
ENDCHAR
STARTCHAR uni1798
ENCODING 6040
SWIDTH 640 0
DWIDTH 10 0
BBX 8 9 0 0
BITMAP
63
84
C7
41
5D
41
41
41
3E
ENDCHAR
STARTCHAR uni1799
ENCODING 6041
SWIDTH 896 0
DWIDTH 14 0
BBX 11 9 1 0
BITMAP
CC60
9080
9CE0
8420
8420
8420
8420
8420
7BC0
ENDCHAR
STARTCHAR uni179A
ENCODING 6042
SWIDTH 320 0
DWIDTH 5 0
BBX 3 9 0 0
BITMAP
60
80
E0
20
20
20
E0
A0
60
ENDCHAR
STARTCHAR uni179B
ENCODING 6043
SWIDTH 896 0
DWIDTH 14 0
BBX 11 9 1 0
BITMAP
7860
8480
84E0
8420
8420
8420
E420
A420
C3C0
ENDCHAR
STARTCHAR uni179C
ENCODING 6044
SWIDTH 320 0
DWIDTH 5 0
BBX 3 11 0 0
BITMAP
20
20
60
80
E0
20
20
20
E0
A0
60
ENDCHAR
STARTCHAR uni179D
ENCODING 6045
SWIDTH 640 0
DWIDTH 10 0
BBX 8 9 1 0
BITMAP
FE
00
7C
82
82
B7
C2
82
82
ENDCHAR
STARTCHAR uni179E
ENCODING 6046
SWIDTH 640 0
DWIDTH 10 0
BBX 9 9 0 0
BITMAP
6300
8400
C700
4100
4380
4D00
4100
4100
3E00
ENDCHAR
STARTCHAR uni179F
ENCODING 6047
SWIDTH 896 0
DWIDTH 14 0
BBX 11 9 1 0
BITMAP
7860
8080
78E0
8420
8420
8420
E420
A420
C3C0
ENDCHAR
STARTCHAR uni17A0
ENCODING 6048
SWIDTH 896 0
DWIDTH 14 0
BBX 12 9 0 0
BITMAP
61E0
8210
C210
4210
4210
4210
4210
4210
3C10
ENDCHAR
STARTCHAR uni17A1
ENCODING 6049
SWIDTH 960 0
DWIDTH 15 0
BBX 12 14 1 -5
BITMAP
7C30
8240
8270
8010
6410
1A10
0410
4410
3810
0010
0610
0290
0350
0230
ENDCHAR
STARTCHAR uni17A2
ENCODING 6050
SWIDTH 640 0
DWIDTH 10 0
BBX 8 9 0 0
BITMAP
63
84
E7
21
3F
21
E7
A5
63
ENDCHAR
STARTCHAR uni17A5
ENCODING 6053
SWIDTH 640 0
DWIDTH 10 0
BBX 7 11 1 0
BITMAP
02
02
FE
00
7C
82
82
82
E2
A2
C2
ENDCHAR
STARTCHAR uni17A6
ENCODING 6054
SWIDTH 832 0
DWIDTH 13 0
BBX 10 19 1 -5
BITMAP
0800
0B80
0C40
0040
0040
7840
8440
8440
8440
8440
8440
E440
A440
C440
0040
7840
8440
8640
C5C0
ENDCHAR
STARTCHAR uni17A7
ENCODING 6055
SWIDTH 640 0
DWIDTH 10 0
BBX 7 9 1 0
BITMAP
7C
82
82
04
38
C0
86
8A
72
ENDCHAR
STARTCHAR uni17A8
ENCODING 6056
SWIDTH 640 0
DWIDTH 10 0
BBX 7 12 1 0
BITMAP
EE
10
00
7C
82
82
04
38
C0
86
8A
72
ENDCHAR
STARTCHAR uni17A9
ENCODING 6057
SWIDTH 640 0
DWIDTH 10 0
BBX 8 9 1 0
BITMAP
7C
82
82
04
38
C0
8D
95
65
ENDCHAR
STARTCHAR uni17AA
ENCODING 6058
SWIDTH 640 0
DWIDTH 10 0
BBX 7 14 1 0
BITMAP
02
72
8C
80
00
7C
82
82
04
38
C0
86
8A
72
ENDCHAR
STARTCHAR uni17AB
ENCODING 6059
SWIDTH 640 0
DWIDTH 10 0
BBX 8 13 0 -4
BITMAP
63
84
C7
41
41
41
41
41
3E
04
02
42
3C
ENDCHAR
STARTCHAR uni17AC
ENCODING 6060
SWIDTH 640 0
DWIDTH 10 0
BBX 8 14 0 -5
BITMAP
63
84
C7
41
41
41
41
41
3E
04
02
42
3C
03
ENDCHAR
STARTCHAR uni17AD
ENCODING 6061
SWIDTH 640 0
DWIDTH 10 0
BBX 7 13 1 -4
BITMAP
6C
92
82
82
82
82
E2
A2
C2
04
02
42
3C
ENDCHAR
STARTCHAR uni17AE
ENCODING 6062
SWIDTH 640 0
DWIDTH 10 0
BBX 8 14 1 -5
BITMAP
6C
92
82
82
82
82
E2
A2
C2
04
02
42
3C
03
ENDCHAR
STARTCHAR uni17AF
ENCODING 6063
SWIDTH 640 0
DWIDTH 10 0
BBX 8 11 0 0
BITMAP
40
40
5E
61
01
01
C1
41
49
55
63
ENDCHAR
STARTCHAR uni17B0
ENCODING 6064
SWIDTH 640 0
DWIDTH 10 0
BBX 7 14 1 -5
BITMAP
6C
92
82
82
82
82
E2
A2
C2
04
78
82
92
6C
ENDCHAR
STARTCHAR uni17B1
ENCODING 6065
SWIDTH 640 0
DWIDTH 10 0
BBX 7 13 1 0
BITMAP
70
8C
82
00
7C
82
82
04
38
C0
86
8A
72
ENDCHAR
STARTCHAR uni17B2
ENCODING 6066
SWIDTH 640 0
DWIDTH 10 0
BBX 7 9 1 0
BITMAP
7C
80
8C
92
82
8C
82
82
7C
ENDCHAR
STARTCHAR uni17B3
ENCODING 6067
SWIDTH 640 0
DWIDTH 10 0
BBX 8 14 1 0
BITMAP
03
72
8A
86
00
7C
82
82
04
38
C0
86
8A
72
ENDCHAR
STARTCHAR uni17B6
ENCODING 6070
SWIDTH 256 0
DWIDTH 4 0
BBX 4 9 -2 0
BITMAP
E0
10
10
10
10
10
10
10
10
ENDCHAR
STARTCHAR uni17B7
ENCODING 6071
SWIDTH 0 0
DWIDTH 0 0
BBX 7 3 -9 11
BITMAP
78
84
FE
ENDCHAR
STARTCHAR uni17B8
ENCODING 6072
SWIDTH 0 0
DWIDTH 0 0
BBX 7 4 -9 11
BITMAP
02
7A
86
FE
ENDCHAR
STARTCHAR uni17B9
ENCODING 6073
SWIDTH 0 0
DWIDTH 0 0
BBX 8 3 -9 11
BITMAP
7B
85
FE
ENDCHAR
STARTCHAR uni17BA
ENCODING 6074
SWIDTH 0 0
DWIDTH 0 0
BBX 7 4 -9 11
BITMAP
0A
7A
86
FE
ENDCHAR
STARTCHAR uni17BB
ENCODING 6075
SWIDTH 0 0
DWIDTH 0 0
BBX 2 4 -4 -5
BITMAP
C0
40
40
40
ENDCHAR
STARTCHAR uni17BC
ENCODING 6076
SWIDTH 0 0
DWIDTH 0 0
BBX 4 4 -6 -5
BITMAP
90
90
90
60
ENDCHAR
STARTCHAR uni17BD
ENCODING 6077
SWIDTH 0 0
DWIDTH 0 0
BBX 5 4 -7 -5
BITMAP
88
A8
D8
88
ENDCHAR
STARTCHAR uni17BE
ENCODING 6078
SWIDTH 0 0
DWIDTH 0 0
BBX 7 4 -9 11
BITMAP
02
7A
86
FE
ENDCHAR
STARTCHAR uni17BF
ENCODING 6079
SWIDTH 256 0
DWIDTH 4 0
BBX 6 20 -4 -5
BITMAP
14
74
8C
FC
04
04
04
04
04
04
04
04
04
04
04
04
44
44
44
38
ENDCHAR
STARTCHAR uni17C0
ENCODING 6080
SWIDTH 256 0
DWIDTH 4 0
BBX 5 20 -3 -5
BITMAP
80
80
F0
08
08
08
08
08
08
08
08
08
08
08
08
08
88
88
88
70
ENDCHAR
STARTCHAR uni17C1
ENCODING 6081
SWIDTH 256 0
DWIDTH 4 0
BBX 3 9 0 0
BITMAP
60
80
C0
40
40
40
40
40
60
ENDCHAR
STARTCHAR uni17C2
ENCODING 6082
SWIDTH 256 0
DWIDTH 4 0
BBX 4 14 0 0
BITMAP
30
10
90
60
00
60
80
C0
40
40
40
40
40
60
ENDCHAR
STARTCHAR uni17C3
ENCODING 6083
SWIDTH 256 0
DWIDTH 4 0
BBX 4 14 0 0
BITMAP
80
F0
10
60
00
60
80
C0
40
40
40
40
40
60
ENDCHAR
STARTCHAR uni17C4
ENCODING 6084
SWIDTH 256 0
DWIDTH 4 0
BBX 4 9 -2 0
BITMAP
E0
10
10
10
10
10
10
10
10
ENDCHAR
STARTCHAR uni17C5
ENCODING 6085
SWIDTH 256 0
DWIDTH 4 0
BBX 4 12 -2 0
BITMAP
30
10
10
E0
10
10
10
10
10
10
10
10
ENDCHAR
STARTCHAR uni17C6
ENCODING 6086
SWIDTH 0 0
DWIDTH 0 0
BBX 3 3 -7 11
BITMAP
40
A0
40
ENDCHAR
STARTCHAR uni17C7
ENCODING 6087
SWIDTH 256 0
DWIDTH 4 0
BBX 3 9 0 0
BITMAP
40
A0
40
00
00
00
40
A0
40
ENDCHAR
STARTCHAR uni17C8
ENCODING 6088
SWIDTH 192 0
DWIDTH 3 0
BBX 2 9 0 0
BITMAP
80
C0
00
00
00
00
00
80
C0
ENDCHAR
STARTCHAR uni17C9
ENCODING 6089
SWIDTH 0 0
DWIDTH 0 0
BBX 3 3 -7 11
BITMAP
A0
A0
A0
ENDCHAR
STARTCHAR uni17CA
ENCODING 6090
SWIDTH 0 0
DWIDTH 0 0
BBX 7 2 -9 9
BITMAP
EE
10
ENDCHAR
STARTCHAR uni17CB
ENCODING 6091
SWIDTH 0 0
DWIDTH 0 0
BBX 1 3 -6 11
BITMAP
80
80
80
ENDCHAR
STARTCHAR uni17CC
ENCODING 6092
SWIDTH 0 0
DWIDTH 0 0
BBX 6 3 -8 11
BITMAP
78
8C
C0
ENDCHAR
STARTCHAR uni17CD
ENCODING 6093
SWIDTH 0 0
DWIDTH 0 0
BBX 6 3 -8 11
BITMAP
6C
90
C8
ENDCHAR
STARTCHAR uni17CE
ENCODING 6094
SWIDTH 0 0
DWIDTH 0 0
BBX 3 3 -7 11
BITMAP
40
E0
40
ENDCHAR
STARTCHAR uni17CF
ENCODING 6095
SWIDTH 0 0
DWIDTH 0 0
BBX 7 4 -9 11
BITMAP
7E
80
92
6C
ENDCHAR
STARTCHAR uni17D0
ENCODING 6096
SWIDTH 0 0
DWIDTH 0 0
BBX 6 3 -8 11
BITMAP
64
84
F8
ENDCHAR
STARTCHAR uni17D1
ENCODING 6097
SWIDTH 0 0
DWIDTH 0 0
BBX 7 1 -9 11
BITMAP
FE
ENDCHAR
STARTCHAR uni17D2
ENCODING 6098
SWIDTH 0 0
DWIDTH 0 0
BBX 3 3 -7 -4
BITMAP
40
E0
40
ENDCHAR
STARTCHAR uni17D3
ENCODING 6099
SWIDTH 0 0
DWIDTH 0 0
BBX 3 4 -7 11
BITMAP
40
A0
A0
40
ENDCHAR
STARTCHAR uni17DD
ENCODING 6109
SWIDTH 0 0
DWIDTH 0 0
BBX 7 2 -9 11
BITMAP
7C
82
ENDCHAR
STARTCHAR uni17E0
ENCODING 6112
SWIDTH 640 0
DWIDTH 10 0
BBX 7 9 1 0
BITMAP
38
44
82
82
82
82
82
44
38
ENDCHAR
STARTCHAR uni17E1
ENCODING 6113
SWIDTH 640 0
DWIDTH 10 0
BBX 7 9 1 0
BITMAP
7C
82
82
82
E2
02
02
02
7C
ENDCHAR
STARTCHAR uni17E2
ENCODING 6114
SWIDTH 704 0
DWIDTH 11 0
BBX 9 11 0 0
BITMAP
C000
4000
4D80
5680
5080
5080
5C80
4080
4080
4080
3F00
ENDCHAR
STARTCHAR uni17E3
ENCODING 6115
SWIDTH 896 0
DWIDTH 14 0
BBX 11 9 1 0
BITMAP
7BC0
8420
8420
8420
8420
8420
E420
A420
C420
ENDCHAR
STARTCHAR uni17E4
ENCODING 6116
SWIDTH 640 0
DWIDTH 10 0
BBX 7 11 1 0
BITMAP
02
02
7A
86
80
80
86
84
84
82
7E
ENDCHAR
STARTCHAR uni17E5
ENCODING 6117
SWIDTH 640 0
DWIDTH 10 0
BBX 7 11 1 0
BITMAP
02
22
52
7E
80
80
86
84
84
82
7E
ENDCHAR
STARTCHAR uni17E6
ENCODING 6118
SWIDTH 640 0
DWIDTH 10 0
BBX 7 11 1 0
BITMAP
80
80
BC
C2
02
02
E2
82
82
82
7C
ENDCHAR
STARTCHAR uni17E7
ENCODING 6119
SWIDTH 768 0
DWIDTH 12 0
BBX 9 11 1 0
BITMAP
0080
0080
6C80
B480
8480
8480
8480
8480
E480
A480
C700
ENDCHAR
STARTCHAR uni17E8
ENCODING 6120
SWIDTH 576 0
DWIDTH 9 0
BBX 7 11 1 0
BITMAP
02
02
7A
86
80
80
8E
82
82
92
6C
ENDCHAR
STARTCHAR uni17E9
ENCODING 6121
SWIDTH 640 0
DWIDTH 10 0
BBX 7 11 1 0
BITMAP
02
02
3A
46
40
20
7C
80
80
82
7C
ENDCHAR
STARTCHAR uni17D21780
ENCODING 57344
SWIDTH 0 0
DWIDTH 0 0
BBX 7 4 -9 -5
BITMAP
7C
82
82
82
ENDCHAR
STARTCHAR uni17D21781
ENCODING 57345
SWIDTH 0 0
DWIDTH 0 0
BBX 7 4 -9 -5
BITMAP
FC
0E
70
9E
ENDCHAR
STARTCHAR uni17D21782
ENCODING 57346
SWIDTH 0 0
DWIDTH 0 0
BBX 7 4 -9 -5
BITMAP
7C
82
B2
C2
ENDCHAR
STARTCHAR uni17D21783
ENCODING 57347
SWIDTH 256 0
DWIDTH 4 0
BBX 11 14 -8 -5
BITMAP
0060
0080
00C0
0040
0040
0040
0040
0040
0040
0040
C440
4440
4440
3B80
ENDCHAR
STARTCHAR uni17D21784
ENCODING 57348
SWIDTH 0 0
DWIDTH 0 0
BBX 7 4 -9 -5
BITMAP
62
82
84
78
ENDCHAR
STARTCHAR uni17D21785
ENCODING 57349
SWIDTH 0 0
DWIDTH 0 0
BBX 7 4 -9 -5
BITMAP
46
8A
8C
72
ENDCHAR
STARTCHAR uni17D21786
ENCODING 57350
SWIDTH 0 0
DWIDTH 0 0
BBX 8 4 -10 -5
BITMAP
43
41
B1
CE
ENDCHAR
STARTCHAR uni17D21787
ENCODING 57351
SWIDTH 0 0
DWIDTH 0 0
BBX 8 4 -9 -5
BITMAP
64
82
92
6D
ENDCHAR
STARTCHAR uni17D21788
ENCODING 57352
SWIDTH 256 0
DWIDTH 4 0
BBX 11 14 -8 -5
BITMAP
0060
0080
00C0
0040
0040
0040
0040
0040
0040
0040
7240
9240
9240
DD80
ENDCHAR
STARTCHAR uni17D21789
ENCODING 57353
SWIDTH 0 0
DWIDTH 0 0
BBX 7 4 -9 -5
BITMAP
0C
C2
22
1C
ENDCHAR
STARTCHAR uni17D2178A
ENCODING 57354
SWIDTH 0 0
DWIDTH 0 0
BBX 7 4 -9 -5
BITMAP
7C
82
82
E2
ENDCHAR
STARTCHAR uni17D2178B
ENCODING 57355
SWIDTH 0 0
DWIDTH 0 0
BBX 8 4 -9 -5
BITMAP
7F
82
E2
9C
ENDCHAR
STARTCHAR uni17D2178C
ENCODING 57356
SWIDTH 0 0
DWIDTH 0 0
BBX 7 4 -9 -5
BITMAP
DC
22
0C
F6
ENDCHAR
STARTCHAR uni17D2178D
ENCODING 57357
SWIDTH 256 0
DWIDTH 4 0
BBX 11 14 -8 -5
BITMAP
0060
0080
00C0
0040
0040
0040
0040
0040
0040
0040
6C40
9440
8640
C580
ENDCHAR
STARTCHAR uni17D2178E
ENCODING 57358
SWIDTH 0 0
DWIDTH 0 0
BBX 13 4 -16 -5
BITMAP
7070
8888
8A88
CD88
ENDCHAR
STARTCHAR uni17D2178F
ENCODING 57359
SWIDTH 0 0
DWIDTH 0 0
BBX 7 4 -9 -5
BITMAP
7C
82
82
E2
ENDCHAR
STARTCHAR uni17D21790
ENCODING 57360
SWIDTH 0 0
DWIDTH 0 0
BBX 7 4 -9 -5
BITMAP
70
88
84
66
ENDCHAR
STARTCHAR uni17D21791
ENCODING 57361
SWIDTH 0 0
DWIDTH 0 0
BBX 7 4 -9 -5
BITMAP
44
4A
8A
72
ENDCHAR
STARTCHAR uni17D21792
ENCODING 57362
SWIDTH 0 0
DWIDTH 0 0
BBX 7 4 -9 -5
BITMAP
7E
82
92
6C
ENDCHAR
STARTCHAR uni17D21793
ENCODING 57363
SWIDTH 0 0
DWIDTH 0 0
BBX 8 4 -9 -5
BITMAP
7F
82
8E
72
ENDCHAR
STARTCHAR uni17D21794
ENCODING 57364
SWIDTH 256 0
DWIDTH 4 0
BBX 6 14 -3 -5
BITMAP
0C
10
18
08
08
08
08
08
08
08
88
A8
D8
88
ENDCHAR
STARTCHAR uni17D21795
ENCODING 57365
SWIDTH 0 0
DWIDTH 0 0
BBX 7 4 -9 -5
BITMAP
86
A2
D2
8C
ENDCHAR
STARTCHAR uni17D21796
ENCODING 57366
SWIDTH 0 0
DWIDTH 0 0
BBX 7 4 -9 -5
BITMAP
6C
92
82
C2
ENDCHAR
STARTCHAR uni17D21797
ENCODING 57367
SWIDTH 0 0
DWIDTH 0 0
BBX 7 4 -9 -5
BITMAP
7C
82
42
C2
ENDCHAR
STARTCHAR uni17D21798
ENCODING 57368
SWIDTH 0 0
DWIDTH 0 0
BBX 8 4 -9 -5
BITMAP
02
82
8D
72
ENDCHAR
STARTCHAR uni17D21799
ENCODING 57369
SWIDTH 256 0
DWIDTH 4 0
BBX 6 14 -3 -5
BITMAP
0C
10
18
08
08
08
08
08
08
08
88
88
88
70
ENDCHAR
STARTCHAR uni17D2179A
ENCODING 57370
SWIDTH 256 0
DWIDTH 4 0
BBX 6 14 0 -5
BITMAP
60
80
C0
40
40
40
40
40
40
40
44
44
44
38
ENDCHAR
STARTCHAR uni17D2179B
ENCODING 57371
SWIDTH 0 0
DWIDTH 0 0
BBX 7 4 -9 -5
BITMAP
62
92
92
CC
ENDCHAR
STARTCHAR uni17D2179C
ENCODING 57372
SWIDTH 0 0
DWIDTH 0 0
BBX 7 4 -9 -5
BITMAP
7E
82
84
78
ENDCHAR
STARTCHAR uni17D2179D
ENCODING 57373
SWIDTH 0 0
DWIDTH 0 0
BBX 8 4 -9 -5
BITMAP
7B
84
B2
C2
ENDCHAR
STARTCHAR uni17D2179E
ENCODING 57374
SWIDTH 256 0
DWIDTH 4 0
BBX 6 14 -3 -5
BITMAP
0C
10
18
08
08
08
08
1C
08
08
88
A8
D8
88
ENDCHAR
STARTCHAR uni17D2179F
ENCODING 57375
SWIDTH 256 0
DWIDTH 4 0
BBX 6 14 -3 -5
BITMAP
0C
10
18
08
08
08
08
1C
08
08
88
88
88
70
ENDCHAR
STARTCHAR uni17D217A0
ENCODING 57376
SWIDTH 0 0
DWIDTH 0 0
BBX 7 4 -9 -5
BITMAP
9C
92
92
72
ENDCHAR
STARTCHAR uni17D217A2
ENCODING 57377
SWIDTH 0 0
DWIDTH 0 0
BBX 7 4 -9 -5
BITMAP
C2
7E
42
C6
ENDCHAR
STARTCHAR uni17B7.small
ENCODING 57399
SWIDTH 0 0
DWIDTH 0 0
BBX 6 3 -8 12
BITMAP
70
88
FC
ENDCHAR
STARTCHAR uni17B8.small
ENCODING 57400
SWIDTH 0 0
DWIDTH 0 0
BBX 7 3 -9 12
BITMAP
72
8A
FE
ENDCHAR
STARTCHAR uni17B9.small
ENCODING 57401
SWIDTH 0 0
DWIDTH 0 0
BBX 7 3 -9 12
BITMAP
76
8A
FC
ENDCHAR
STARTCHAR uni17BA.small
ENCODING 57402
SWIDTH 0 0
DWIDTH 0 0
BBX 7 3 -9 12
BITMAP
6A
9A
FE
ENDCHAR
STARTCHAR uni17BB.below2
ENCODING 57403
SWIDTH 0 0
DWIDTH 0 0
BBX 1 3 -3 -9
BITMAP
80
80
80
ENDCHAR
STARTCHAR uni17BC.below2
ENCODING 57404
SWIDTH 0 0
DWIDTH 0 0
BBX 4 3 -6 -9
BITMAP
90
90
60
ENDCHAR
STARTCHAR uni17BD.below2
ENCODING 57405
SWIDTH 0 0
DWIDTH 0 0
BBX 5 3 -7 -9
BITMAP
88
A8
D8
ENDCHAR
STARTCHAR uni17BF.below2
ENCODING 57407
SWIDTH 256 0
DWIDTH 4 0
BBX 6 20 -4 -5
BITMAP
14
74
8C
FC
04
04
04
04
04
04
04
04
04
04
04
04
04
04
04
1C
ENDCHAR
STARTCHAR uni17C0.below2
ENCODING 57408
SWIDTH 256 0
DWIDTH 4 0
BBX 5 20 -3 -5
BITMAP
80
80
F0
08
08
08
08
08
08
08
08
08
08
08
08
08
08
08
08
38
ENDCHAR
STARTCHAR uni17D21789.full.below
ENCODING 57440
SWIDTH 0 0
DWIDTH 0 0
BBX 11 4 -13 -5
BITMAP
6FC0
9420
8420
C5E0
ENDCHAR
STARTCHAR uni1789.less
ENCODING 57441
SWIDTH 896 0
DWIDTH 14 0
BBX 11 9 1 0
BITMAP
6DC0
B620
8420
8420
8420
8420
E420
A420
C420
ENDCHAR
STARTCHAR uni1794.alt
ENCODING 57442
SWIDTH 640 0
DWIDTH 10 0
BBX 8 9 0 0
BITMAP
7F
80
C0
41
41
41
43
45
39
ENDCHAR
STARTCHAR uni17D2179A.pre2
ENCODING 57443
SWIDTH 256 0
DWIDTH 4 0
BBX 4 14 0 -5
BITMAP
60
80
C0
40
40
40
40
40
40
40
40
40
40
70
ENDCHAR
STARTCHAR uni17B717CD
ENCODING 57444
SWIDTH 0 0
DWIDTH 0 0
BBX 8 4 -9 11
BITMAP
03
7A
84
FE
ENDCHAR
STARTCHAR .notdef
ENCODING -1
SWIDTH 672 0
DWIDTH 11 0
BBX 7 21 2 -6
BITMAP
FE
C6
EE
FE
CE
C6
FE
EE
C6
C6
FE
E6
C6
FE
C6
F6
C6
C6
CE
C6
FE
ENDCHAR
STARTCHAR uni17B7.narrow
ENCODING -1
SWIDTH 0 0
DWIDTH 0 0
BBX 6 3 -7 10
BITMAP
70
88
FC
ENDCHAR
STARTCHAR uni17B8.narrow
ENCODING -1
SWIDTH 0 0
DWIDTH 0 0
BBX 7 3 -8 10
BITMAP
72
8A
FE
ENDCHAR
STARTCHAR uni17B9.narrow
ENCODING -1
SWIDTH 0 0
DWIDTH 0 0
BBX 7 3 -8 10
BITMAP
76
8A
FC
ENDCHAR
STARTCHAR uni17BA.narrow
ENCODING -1
SWIDTH 0 0
DWIDTH 0 0
BBX 7 3 -8 10
BITMAP
6A
9A
FE
ENDCHAR
STARTCHAR uni17D21799.post2
ENCODING -1
SWIDTH 256 0
DWIDTH 4 0
BBX 4 14 -1 -5
BITMAP
30
40
60
20
20
20
20
20
20
20
20
20
20
E0
ENDCHAR
ENDFONT
